<svg width="109" height="20" viewBox="0 0 109 20" fill="none" xmlns="http://www.w3.org/2000/svg">
<path d="M19.183 8.05833C19.1303 7.90591 19.0346 7.77202 18.9074 7.67292C18.7802 7.57381 18.627 7.51375 18.4663 7.5L13.7246 6.80833L11.5996 2.5C11.5314 2.35911 11.4249 2.24028 11.2922 2.15714C11.1596 2.074 11.0062 2.02991 10.8496 2.02991C10.6931 2.02991 10.5397 2.074 10.4071 2.15714C10.2744 2.24028 10.1679 2.35911 10.0996 2.5L7.97463 6.8L3.23296 7.5C3.07873 7.52192 2.93373 7.58663 2.81442 7.6868C2.69511 7.78696 2.60626 7.91856 2.55796 8.06667C2.51375 8.21139 2.50978 8.36543 2.54649 8.51224C2.58319 8.65906 2.65918 8.7931 2.7663 8.9L6.20796 12.2333L5.37463 16.9667C5.34488 17.1229 5.36046 17.2844 5.41952 17.432C5.47859 17.5797 5.57868 17.7074 5.70796 17.8C5.83398 17.8901 5.98261 17.9433 6.13717 17.9536C6.29173 17.9639 6.44611 17.9309 6.58296 17.8583L10.8496 15.6333L15.0996 17.8667C15.2166 17.9326 15.3487 17.9671 15.483 17.9667C15.6595 17.9673 15.8316 17.9119 15.9746 17.8083C16.1039 17.7157 16.204 17.588 16.2631 17.4404C16.3221 17.2927 16.3377 17.1312 16.308 16.975L15.4746 12.2417L18.9163 8.90833C19.0366 8.8064 19.1255 8.67242 19.1727 8.52196C19.2199 8.37149 19.2235 8.21073 19.183 8.05833ZM14.058 11.3917C13.9602 11.4862 13.8871 11.6032 13.845 11.7325C13.8029 11.8618 13.793 11.9994 13.8163 12.1333L14.4163 15.625L11.283 13.9583C11.1624 13.8941 11.0279 13.8606 10.8913 13.8606C10.7547 13.8606 10.6202 13.8941 10.4996 13.9583L7.3663 15.625L7.9663 12.1333C7.98958 11.9994 7.97973 11.8618 7.9376 11.7325C7.89548 11.6032 7.82236 11.4862 7.72463 11.3917L5.22463 8.89167L8.73296 8.38333C8.86796 8.36455 8.9963 8.31295 9.10671 8.23304C9.21713 8.15313 9.30626 8.04736 9.3663 7.925L10.8496 4.75L12.4163 7.93333C12.4763 8.0557 12.5655 8.16147 12.6759 8.24138C12.7863 8.32128 12.9146 8.37289 13.0496 8.39167L16.558 8.9L14.058 11.3917Z" fill="#FF9901"/>
<path d="M41.183 8.05833C41.1303 7.90591 41.0346 7.77202 40.9074 7.67292C40.7802 7.57381 40.627 7.51375 40.4663 7.5L35.7246 6.80833L33.5996 2.5C33.5314 2.35911 33.4249 2.24028 33.2922 2.15714C33.1596 2.074 33.0062 2.02991 32.8496 2.02991C32.6931 2.02991 32.5397 2.074 32.4071 2.15714C32.2744 2.24028 32.1679 2.35911 32.0996 2.5L29.9746 6.8L25.233 7.5C25.0787 7.52192 24.9337 7.58663 24.8144 7.6868C24.6951 7.78696 24.6063 7.91856 24.558 8.06667C24.5138 8.21139 24.5098 8.36543 24.5465 8.51224C24.5832 8.65906 24.6592 8.7931 24.7663 8.9L28.208 12.2333L27.3746 16.9667C27.3449 17.1229 27.3605 17.2844 27.4195 17.432C27.4786 17.5797 27.5787 17.7074 27.708 17.8C27.834 17.8901 27.9826 17.9433 28.1372 17.9536C28.2917 17.9639 28.4461 17.9309 28.583 17.8583L32.8496 15.6333L37.0996 17.8667C37.2166 17.9326 37.3487 17.9671 37.483 17.9667C37.6595 17.9673 37.8316 17.9119 37.9746 17.8083C38.1039 17.7157 38.204 17.588 38.2631 17.4404C38.3221 17.2927 38.3377 17.1312 38.308 16.975L37.4746 12.2417L40.9163 8.90833C41.0366 8.8064 41.1255 8.67242 41.1727 8.52196C41.2199 8.37149 41.2235 8.21073 41.183 8.05833ZM36.058 11.3917C35.9602 11.4862 35.8871 11.6032 35.845 11.7325C35.8029 11.8618 35.793 11.9994 35.8163 12.1333L36.4163 15.625L33.283 13.9583C33.1624 13.8941 33.0279 13.8606 32.8913 13.8606C32.7547 13.8606 32.6202 13.8941 32.4996 13.9583L29.3663 15.625L29.9663 12.1333C29.9896 11.9994 29.9797 11.8618 29.9376 11.7325C29.8955 11.6032 29.8224 11.4862 29.7246 11.3917L27.2246 8.89167L30.733 8.38333C30.868 8.36455 30.9963 8.31295 31.1067 8.23304C31.2171 8.15313 31.3063 8.04736 31.3663 7.925L32.8496 4.75L34.4163 7.93333C34.4763 8.0557 34.5655 8.16147 34.6759 8.24138C34.7863 8.32128 34.9146 8.37289 35.0496 8.39167L38.558 8.9L36.058 11.3917Z" fill="#FF9901"/>
<path d="M63.183 8.05833C63.1303 7.90591 63.0346 7.77202 62.9074 7.67292C62.7802 7.57381 62.627 7.51375 62.4663 7.5L57.7246 6.80833L55.5996 2.5C55.5314 2.35911 55.4249 2.24028 55.2922 2.15714C55.1596 2.074 55.0062 2.02991 54.8496 2.02991C54.6931 2.02991 54.5397 2.074 54.4071 2.15714C54.2744 2.24028 54.1679 2.35911 54.0996 2.5L51.9746 6.8L47.233 7.5C47.0787 7.52192 46.9337 7.58663 46.8144 7.6868C46.6951 7.78696 46.6063 7.91856 46.558 8.06667C46.5138 8.21139 46.5098 8.36543 46.5465 8.51224C46.5832 8.65906 46.6592 8.7931 46.7663 8.9L50.208 12.2333L49.3746 16.9667C49.3449 17.1229 49.3605 17.2844 49.4195 17.432C49.4786 17.5797 49.5787 17.7074 49.708 17.8C49.834 17.8901 49.9826 17.9433 50.1372 17.9536C50.2917 17.9639 50.4461 17.9309 50.583 17.8583L54.8496 15.6333L59.0996 17.8667C59.2166 17.9326 59.3487 17.9671 59.483 17.9667C59.6595 17.9673 59.8316 17.9119 59.9746 17.8083C60.1039 17.7157 60.204 17.588 60.2631 17.4404C60.3221 17.2927 60.3377 17.1312 60.308 16.975L59.4746 12.2417L62.9163 8.90833C63.0366 8.8064 63.1255 8.67242 63.1727 8.52196C63.2199 8.37149 63.2235 8.21073 63.183 8.05833ZM58.058 11.3917C57.9602 11.4862 57.8871 11.6032 57.845 11.7325C57.8029 11.8618 57.793 11.9994 57.8163 12.1333L58.4163 15.625L55.283 13.9583C55.1624 13.8941 55.0279 13.8606 54.8913 13.8606C54.7547 13.8606 54.6202 13.8941 54.4996 13.9583L51.3663 15.625L51.9663 12.1333C51.9896 11.9994 51.9797 11.8618 51.9376 11.7325C51.8955 11.6032 51.8224 11.4862 51.7246 11.3917L49.2246 8.89167L52.733 8.38333C52.868 8.36455 52.9963 8.31295 53.1067 8.23304C53.2171 8.15313 53.3063 8.04736 53.3663 7.925L54.8496 4.75L56.4163 7.93333C56.4763 8.0557 56.5655 8.16147 56.6759 8.24138C56.7863 8.32128 56.9146 8.37289 57.0496 8.39167L60.558 8.9L58.058 11.3917Z" fill="#FF9901"/>
<path d="M85.183 8.05833C85.1303 7.90591 85.0346 7.77202 84.9074 7.67292C84.7802 7.57381 84.627 7.51375 84.4663 7.5L79.7246 6.80833L77.5996 2.5C77.5314 2.35911 77.4249 2.24028 77.2922 2.15714C77.1596 2.074 77.0062 2.02991 76.8496 2.02991C76.6931 2.02991 76.5397 2.074 76.4071 2.15714C76.2744 2.24028 76.1679 2.35911 76.0996 2.5L73.9746 6.8L69.233 7.5C69.0787 7.52192 68.9337 7.58663 68.8144 7.6868C68.6951 7.78696 68.6063 7.91856 68.558 8.06667C68.5138 8.21139 68.5098 8.36543 68.5465 8.51224C68.5832 8.65906 68.6592 8.7931 68.7663 8.9L72.208 12.2333L71.3746 16.9667C71.3449 17.1229 71.3605 17.2844 71.4195 17.432C71.4786 17.5797 71.5787 17.7074 71.708 17.8C71.834 17.8901 71.9826 17.9433 72.1372 17.9536C72.2917 17.9639 72.4461 17.9309 72.583 17.8583L76.8496 15.6333L81.0996 17.8667C81.2166 17.9326 81.3487 17.9671 81.483 17.9667C81.6595 17.9673 81.8316 17.9119 81.9746 17.8083C82.1039 17.7157 82.204 17.588 82.2631 17.4404C82.3221 17.2927 82.3377 17.1312 82.308 16.975L81.4746 12.2417L84.9163 8.90833C85.0366 8.8064 85.1255 8.67242 85.1727 8.52196C85.2199 8.37149 85.2235 8.21073 85.183 8.05833ZM80.058 11.3917C79.9602 11.4862 79.8871 11.6032 79.845 11.7325C79.8029 11.8618 79.793 11.9994 79.8163 12.1333L80.4163 15.625L77.283 13.9583C77.1624 13.8941 77.0279 13.8606 76.8913 13.8606C76.7547 13.8606 76.6202 13.8941 76.4996 13.9583L73.3663 15.625L73.9663 12.1333C73.9896 11.9994 73.9797 11.8618 73.9376 11.7325C73.8955 11.6032 73.8224 11.4862 73.7246 11.3917L71.2246 8.89167L74.733 8.38333C74.868 8.36455 74.9963 8.31295 75.1067 8.23304C75.2171 8.15313 75.3063 8.04736 75.3663 7.925L76.8496 4.75L78.4163 7.93333C78.4763 8.0557 78.5655 8.16147 78.6759 8.24138C78.7863 8.32128 78.9146 8.37289 79.0496 8.39167L82.558 8.9L80.058 11.3917Z" fill="#FF9901"/>
<path d="M107.183 8.05833C107.13 7.90591 107.035 7.77202 106.907 7.67292C106.78 7.57381 106.627 7.51375 106.466 7.5L101.725 6.80833L99.5996 2.5C99.5314 2.35911 99.4249 2.24028 99.2922 2.15714C99.1596 2.074 99.0062 2.02991 98.8496 2.02991C98.6931 2.02991 98.5397 2.074 98.4071 2.15714C98.2744 2.24028 98.1679 2.35911 98.0996 2.5L95.9746 6.8L91.233 7.5C91.0787 7.52192 90.9337 7.58663 90.8144 7.6868C90.6951 7.78696 90.6063 7.91856 90.558 8.06667C90.5138 8.21139 90.5098 8.36543 90.5465 8.51224C90.5832 8.65906 90.6592 8.7931 90.7663 8.9L94.208 12.2333L93.3746 16.9667C93.3449 17.1229 93.3605 17.2844 93.4195 17.432C93.4786 17.5797 93.5787 17.7074 93.708 17.8C93.834 17.8901 93.9826 17.9433 94.1372 17.9536C94.2917 17.9639 94.4461 17.9309 94.583 17.8583L98.8496 15.6333L103.1 17.8667C103.217 17.9326 103.349 17.9671 103.483 17.9667C103.659 17.9673 103.832 17.9119 103.975 17.8083C104.104 17.7157 104.204 17.588 104.263 17.4404C104.322 17.2927 104.338 17.1312 104.308 16.975L103.475 12.2417L106.916 8.90833C107.037 8.8064 107.126 8.67242 107.173 8.52196C107.22 8.37149 107.223 8.21073 107.183 8.05833ZM102.058 11.3917C101.96 11.4862 101.887 11.6032 101.845 11.7325C101.803 11.8618 101.793 11.9994 101.816 12.1333L102.416 15.625L99.283 13.9583C99.1624 13.8941 99.0279 13.8606 98.8913 13.8606C98.7547 13.8606 98.6202 13.8941 98.4996 13.9583L95.3663 15.625L95.9663 12.1333C95.9896 11.9994 95.9797 11.8618 95.9376 11.7325C95.8955 11.6032 95.8224 11.4862 95.7246 11.3917L93.2246 8.89167L96.733 8.38333C96.868 8.36455 96.9963 8.31295 97.1067 8.23304C97.2171 8.15313 97.3063 8.04736 97.3663 7.925L98.8496 4.75L100.416 7.93333C100.476 8.0557 100.565 8.16147 100.676 8.24138C100.786 8.32128 100.915 8.37289 101.05 8.39167L104.558 8.9L102.058 11.3917Z" fill="#FF9901"/>
</svg>
