<svg width="44" height="44" viewBox="0 0 44 44" fill="none" xmlns="http://www.w3.org/2000/svg">
<rect x="0.5" y="0.5" width="43" height="43" rx="21.5" stroke="#0A0B5C"/>
<path d="M26.9333 17.5167C26.8488 17.313 26.687 17.1512 26.4833 17.0667C26.3832 17.024 26.2756 17.0013 26.1667 17H17.8333C17.6123 17 17.4004 17.0878 17.2441 17.2441C17.0878 17.4004 17 17.6123 17 17.8333C17 18.0543 17.0878 18.2663 17.2441 18.4226C17.4004 18.5789 17.6123 18.6667 17.8333 18.6667H24.1583L17.2417 25.575C17.1636 25.6525 17.1016 25.7446 17.0593 25.8462C17.017 25.9477 16.9952 26.0567 16.9952 26.1667C16.9952 26.2767 17.017 26.3856 17.0593 26.4871C17.1016 26.5887 17.1636 26.6809 17.2417 26.7583C17.3191 26.8364 17.4113 26.8984 17.5129 26.9407C17.6144 26.9831 17.7233 27.0048 17.8333 27.0048C17.9434 27.0048 18.0523 26.9831 18.1538 26.9407C18.2554 26.8984 18.3475 26.8364 18.425 26.7583L25.3333 19.8417V26.1667C25.3333 26.3877 25.4211 26.5996 25.5774 26.7559C25.7337 26.9122 25.9457 27 26.1667 27C26.3877 27 26.5997 26.9122 26.7559 26.7559C26.9122 26.5996 27 26.3877 27 26.1667V17.8333C26.9987 17.7244 26.976 17.6169 26.9333 17.5167Z" fill="#0A0B5C"/>
</svg>
